<svg xmlns="http://www.w3.org/2000/svg" xmlns:xlink="http://www.w3.org/1999/xlink" id="Camada_1" x="0px" y="0px" viewBox="0 0 10890 2560" style="enable-background:new 0 0 10890 2560;" xml:space="preserve"><style type="text/css">	.st0{fill:#FFFFFF;}</style><g>	<path class="st0" d="M553.33,1474.56l110.08,588.07l468.56,107.13l-109.52-692.69L553.33,1474.56z M2235.31,1442.68L1572.47,392.31  l-644.78-3.45l666.9,1050.39L2235.31,1442.68z M230,1431.97l668.44,3.57l326.14-504.78L892.14,407.16L230,1431.97z   M1389.27,2171.13l469.68-102.11l116.36-586.86l-469.12-2.51L1389.27,2171.13z"></path>	<g>		<path class="st0" d="M5785.42,762.07l-16.81-84.81l-258.86-1.38l-4.14,775.01l288.67,1.54l2.15-403.19   c0.54-101.98,61.95-145.56,134.12-145.17c48.65,0.26,83.11,9.84,129.97,47.75l117.21-208.04   c-49.92-53.6-125.05-83.81-203.52-84.23C5898.92,659.14,5826.59,690.12,5785.42,762.07z M4295.69,650.58   c-210.22-1.12-432.11,123.19-433.62,405.59c-1.51,282.38,204.93,404.31,449.67,405.61c133.35,0.71,260.66-40.97,353.67-126.76   l-140.34-159.21c-50.4,37.36-114.86,62.14-199.57,61.68c-62.76-0.34-152.02-30.63-172.05-99.75l541.24,2.89   C4762.23,835.05,4570.23,652.04,4295.69,650.58z M4156.01,952.61c19.51-126.97,273.63-120.89,280.83,1.5L4156.01,952.61z    M8555.86,775.3c-40.45-62.97-117.14-101.03-226.94-101.62c-225.93-1.21-377.47,173.71-378.7,402.76   c-1.21,225.93,125,388.18,352.42,403.52c86.26,5.16,189.93-20.95,256.23-95.89l12.1,83.2l266.71,1.43l4.14-775.01l-271.41-1.45   L8555.86,775.3z M8391.72,1248.23c-86.29-0.46-154.98-62-154.4-170.26c0.58-108.25,69.93-170.63,156.22-170.17   c101.98,0.55,159.67,68.3,159.12,171.86C8552.17,1170.65,8489,1248.75,8391.72,1248.23z M3450.17,647.61   c-106.68-0.57-193.13,30.35-257.88,110.02c-38.85-72.38-113.95-108.86-192.39-110.86c-79.99-2-164.9,30.51-213.88,97.69   l-19.95-83.25l-243.18-1.3l-4.14,775.01l287.1,1.53l2.27-425.16c2.03-84.7,54-123.63,102.64-123.37   c51.76,0.28,81.42,30.22,80.94,119.66l-2.3,429.86l283.96,1.52l2.28-426.71c0.45-84.74,52.41-117.4,101.03-117.14   c42.36,0.23,79.84,33.36,79.4,114.95l-2.3,429.86l288.66,1.54l2.31-431.43C3746.12,752.75,3618.03,648.51,3450.17,647.61z    M5260.54,1229.95c-43.93-0.23-75.18-20.82-76.46-75.73l1.36-254.14l175.7,0.94l1.18-221.23l-174.12-0.93l1.2-224.33   l-287.27,29.83l-1.03,192.96l-123.95-0.66l-1.18,221.23l123.95,0.66l-1.36,254.14c-6.02,243.14,131.67,314.47,285.42,315.29   c79.99,0.43,156.96-13.28,223.03-50.56l-61.61-213.71C5321.79,1219.28,5288.77,1230.1,5260.54,1229.95z M7604.25,1237.75   c-109.8-0.59-167.45-76.19-167-160.9c0.52-97.28,60.55-176.98,170.37-176.39c51.78,0.28,95.62,17.78,133.04,57.19l154.65-165.45   c-81.15-82.03-192.32-121.85-303.7-122.45c-218.08-1.17-435.25,121.62-436.76,404.02c-1.55,290.22,211.21,402.76,437.14,403.97   c116.1,0.62,227.73-47.41,320.74-130.08l-163.8-173.45C7709.5,1216.35,7657.6,1238.03,7604.25,1237.75z M10388.59,701.96   l-14.56,83.06c-40.45-62.97-117.14-101.03-226.94-101.62c-225.93-1.21-377.47,173.71-378.7,402.76   c-1.21,225.93,125,388.18,352.42,403.52c86.26,5.16,189.93-20.95,256.23-95.89l12.1,83.2l266.71,1.43l4.14-775.01L10388.59,701.96   z M10209.89,1257.95c-86.29-0.46-154.98-62-154.4-170.25c0.58-108.25,69.93-170.63,156.22-170.17   c101.98,0.54,159.67,68.3,159.12,171.86C10370.34,1180.36,10307.18,1258.47,10209.89,1257.95z M9334.48,972.46   c-47.07-1.83-57.92-23.85-57.85-37.97c0.15-28.24,28.44-37.51,69.22-37.29c62.78-1.24,152.07,21.21,194.29,48.12l123.29-171.92   c-74.99-56.9-190.89-95.16-316.41-95.83c-181.97-0.97-358.05,65.54-359.05,252.23c-1.01,188.27,180.66,250.41,331.24,255.94   c56.45,5,81.47,17.68,81.34,42.79c-0.13,25.09-26.86,37.52-78.64,37.24c-62.73-3.48-156.83-10.26-274.07-87.75l-95.26,209.71   c87.52,64.79,239.47,103.26,374.42,103.98c186.69,1,361.2-70.24,362.22-261.63C9690.33,1024.56,9496.04,978.02,9334.48,972.46z    M6629.94,664.6c-224.33-1.2-443.04,116.88-444.58,403.98c-1.51,282.38,217.46,405.92,440.24,407.11   c218.08,1.17,443.08-120.01,444.59-402.38C7071.71,790.91,6858.99,665.83,6629.94,664.6z M6626.87,1238.8   c-101.95-0.54-159.58-79.3-159.11-168.71c0.48-89.43,58.96-169.14,160.91-168.59c101.98,0.54,159.6,80.87,159.12,170.3   C6787.3,1165.94,6724.16,1239.32,6626.87,1238.8z"></path>		<path class="st0" d="M5083.05,1893.68c-16.77-0.65-20.64-8.5-20.61-13.54c0.05-10.06,10.14-13.36,24.67-13.28   c22.37-0.43,54.2,7.57,69.24,17.14l43.93-61.26c-26.72-20.28-68.02-33.91-112.76-34.15c-64.85-0.35-127.6,23.35-127.95,89.89   c-0.36,67.1,64.38,89.25,118.04,91.2c20.12,1.78,29.03,6.31,28.98,15.24c-0.05,8.95-9.58,13.38-28.02,13.28   c-22.36-1.24-55.9-3.66-97.68-31.28l-33.95,74.74c31.19,23.08,85.35,36.78,133.43,37.04c66.53,0.36,128.73-25.02,129.09-93.24   C5209.87,1912.24,5140.63,1895.65,5083.05,1893.68z M4316.67,1784.47c-29.07-0.72-63.78,9.15-87.41,36.42l-4.31-30.21l-91.13-0.49   l-1.48,276.19l101.75,0.54l0.78-145.36c0.19-36.34,23.2-53,47.81-52.86c19.01,0.1,38.51,11.95,38.33,46.05l-0.82,152.64   l102.87,0.55l0.82-153.18C4424.41,1816.34,4374.82,1785.34,4316.67,1784.47z M3444.62,1780.37   c-79.94-0.43-157.88,41.64-158.43,143.95c-0.54,100.63,77.5,144.67,156.89,145.09c77.72,0.42,157.9-42.78,158.44-143.41   S3526.25,1780.8,3444.62,1780.37z M3443.52,1984.98c-36.34-0.19-56.87-28.26-56.7-60.12c0.17-31.86,21.01-60.27,57.34-60.08   c36.34,0.19,56.88,28.82,56.71,60.68C3500.7,1959.02,3478.19,1985.17,3443.52,1984.98z M2676.59,1978.65   c-39.13-0.21-59.67-27.15-59.51-57.34c0.19-34.67,21.58-63.06,60.72-62.85c18.45,0.1,34.07,6.32,47.41,20.37l55.11-58.96   c-28.92-29.22-68.54-43.41-108.23-43.62c-77.72-0.42-155.11,43.34-155.64,143.97c-0.55,103.42,75.27,143.53,155.78,143.96   c41.37,0.22,81.16-16.9,114.3-46.35l-58.37-61.82C2714.09,1971.03,2695.6,1978.75,2676.59,1978.65z M5892.5,1997.51   c-15.65-0.08-26.79-7.41-27.25-26.98l0.48-90.57l62.62,0.33l0.42-78.82l-62.06-0.33l0.43-79.95l-102.38,10.64l-0.37,68.77   l-44.17-0.24l-0.42,78.82l44.17,0.24l-0.48,90.57c-2.14,86.66,46.93,112.08,101.72,112.37c28.51,0.15,55.93-4.75,79.49-18.04   l-21.96-76.15C5914.33,1993.72,5902.57,1997.56,5892.5,1997.51z M10557.28,1824.52l-5.19,29.62   c-14.4-22.44-41.73-36.01-80.87-36.21c-80.51-0.43-134.51,61.9-134.95,143.52c-0.43,80.51,44.54,138.34,125.59,143.8   c30.73,1.85,67.68-7.46,91.3-34.17l4.32,29.65l95.04,0.51l1.48-276.19L10557.28,1824.52z M10493.61,2022.66   c-30.75-0.16-55.23-22.1-55.03-60.68s24.92-60.81,55.68-60.65c36.34,0.19,56.91,24.36,56.71,61.25   C10550.8,1995.01,10528.28,2022.84,10493.61,2022.66z M9707.44,1850.17l-5.98-30.22l-92.26-0.49l-1.48,276.19l102.88,0.55   l0.77-143.69c0.19-36.34,22.08-51.88,47.79-51.74c17.34,0.09,29.63,3.52,46.33,17.02l41.75-74.14   c-17.78-19.1-44.56-29.87-72.51-30.02C9747.9,1813.49,9722.11,1824.54,9707.44,1850.17z M8920.01,1809.63   c-79.95-0.43-157.88,41.64-158.42,143.95c-0.54,100.63,77.49,144.67,156.88,145.09c77.72,0.42,157.9-42.78,158.44-143.41   C9077.44,1854.64,9001.65,1810.07,8920.01,1809.63z M8918.92,2014.24c-36.34-0.19-56.87-28.26-56.7-60.12   c0.17-31.86,21-60.27,57.34-60.08c36.34,0.19,56.89,28.82,56.72,60.68C8976.1,1988.28,8953.59,2014.43,8918.92,2014.24z    M8204.52,2009.86c-15.65-0.08-26.79-7.41-27.25-26.98l0.48-90.57l62.61,0.33l0.42-78.82l-62.05-0.33l0.43-79.95l-102.37,10.64   l-0.37,68.77l-44.17-0.24l-0.42,78.82l44.17,0.24l-0.48,90.57c-2.13,86.66,46.93,112.08,101.72,112.37   c28.52,0.15,55.94-4.75,79.49-18.04l-21.96-76.15C8226.34,2006.08,8214.59,2009.92,8204.52,2009.86z M7402.63,1954.71   c-0.19,36.34-23.2,51.31-47.8,51.18c-19.01-0.1-38.51-11.95-38.33-46.05l0.82-152.64l-102.88-0.55l-0.82,153.2   c-0.53,98.39,49.07,129.41,107.21,130.29c29.06,0.7,63.79-9.17,87.41-36.44l4.32,30.21l91.13,0.49l1.48-276.19l-101.75-0.54   L7402.63,1954.71z M6565.87,1833.38l-5.99-30.22l-92.25-0.49l-1.48,276.19l102.87,0.55l0.77-143.69   c0.19-36.34,22.08-51.88,47.8-51.74c17.34,0.09,29.63,3.52,46.33,17.02l41.75-74.14c-17.78-19.1-44.56-29.87-72.51-30.02   C6606.33,1796.7,6580.54,1807.75,6565.87,1833.38z"></path>	</g></g></svg>